<svg width="744" height="198" viewBox="0 0 744 198" fill="none" xmlns="http://www.w3.org/2000/svg">
<mask id="mask0_1_2598" style="mask-type:luminance" maskUnits="userSpaceOnUse" x="0" y="87" width="160" height="97">
<path d="M0 87.0055H159.922V183.005H0V87.0055Z" fill="white"/>
</mask>
<g mask="url(#mask0_1_2598)">
<path d="M139.286 179.995C142.318 177.349 144.016 173.401 144.99 169.584C146.099 165.224 146.042 160.797 146.234 156.339C146.437 151.719 146.833 146.808 149.036 142.651C151.427 138.136 155.865 135.604 160.891 135.219C165.906 134.828 170.917 136.084 175.703 137.433C176.26 137.589 176.5 136.719 175.943 136.563C167.005 134.052 155.089 131.75 149.036 140.891C143.76 148.86 146.286 159.026 144.458 167.875C143.62 171.964 142.021 176.266 138.88 179.157C135.802 181.985 131.229 182.724 127.536 180.651C123.839 178.578 121.604 174.469 120.625 170.464C119.385 165.396 120.51 160.417 122.229 155.599C124.156 150.188 126.802 145.032 128.198 139.438C129.427 134.521 129.505 129.365 128.458 124.407C126.365 114.485 119.781 105.995 110.354 102.089C101.219 98.2919 90.4635 99.1305 82.5156 105.214C78.7969 108.058 75.7812 111.844 73.901 116.136C73.3125 117.49 72.849 118.875 72.5052 120.276C65.1667 118.24 57.625 116.912 50.0729 116.266C43.6562 115.714 36.8802 115.479 30.3333 116.344L30.0677 106.828C29.8906 100.396 29.7135 93.9586 29.5365 87.5211C29.5208 86.9482 28.6198 86.943 28.6354 87.5211C28.901 97.1721 29.1719 106.823 29.4375 116.474C24.5677 117.198 19.8385 118.547 15.4896 120.86C7.24478 125.245 0.0885345 133.964 0.687493 143.755C1.22395 152.505 8.02604 160.948 17.2344 160.917C22.0729 160.901 26.3958 159.011 30.6771 156.938C30.8073 158.485 30.9844 160.026 31.2448 161.558C31.9635 165.808 33.3437 170.151 36.2656 173.422C39.0573 176.547 43.0312 178.235 47.224 177.917C51.1927 177.615 55.1042 175.714 57.5833 172.558C60.1406 169.297 60.75 165 59.6146 161.052C58.4948 157.167 55.7604 153.636 52.0312 151.953C48.1458 150.203 43.7604 150.646 39.8177 151.948C36.9375 152.896 34.2031 154.224 31.4687 155.542C31.2812 152.584 31.25 149.615 31.1719 146.662C30.901 136.87 30.6302 127.084 30.3594 117.297C34.0833 116.802 37.8594 116.672 41.6094 116.729C47.776 116.828 53.9375 117.396 60.0156 118.433C64.1562 119.141 68.2552 120.063 72.2969 121.188C71.6562 124.318 71.6094 127.542 72.1354 130.766C73.0885 136.62 75.6719 142.073 78.3229 147.323C80.474 151.589 82.6979 156.344 86.7708 159.12C90.5677 161.709 95.3125 161.485 99.1094 159.016C103.094 156.422 105.37 152.047 105.354 147.313C105.333 142.209 102.932 137.271 99.4792 133.604C95.6927 129.584 90.7396 126.917 85.6979 124.818C81.6823 123.146 77.5573 121.719 73.3646 120.521C73.7969 118.745 74.4271 117.011 75.2604 115.344C79.724 106.438 88.8177 100.667 98.7969 100.662C109.089 100.657 118.812 106.24 123.969 115.141C126.552 119.604 128.016 124.709 128.255 129.86C128.51 135.302 127.219 140.459 125.271 145.505C123.229 150.797 120.693 155.959 119.604 161.563C118.776 165.823 119.177 170.146 120.922 174.141C122.443 177.625 125.073 180.875 128.745 182.183C132.375 183.479 136.427 182.49 139.286 179.995ZM42.7187 152.084C47.1198 151.146 51.7396 151.891 55.0521 155.099C58.2083 158.162 59.9219 162.88 59.0677 167.24C58.2135 171.594 54.7865 174.917 50.6562 176.313C46.401 177.745 41.7344 177.089 38.2812 174.141C34.7917 171.162 33.1406 166.677 32.2865 162.292C31.9167 160.386 31.6875 158.459 31.5417 156.521C35.1823 154.745 38.8125 152.917 42.7187 152.084ZM29.7187 126.662C29.901 133.209 30.0781 139.761 30.2604 146.313C30.349 149.521 30.3802 152.75 30.6042 155.959C29.5833 156.443 28.5625 156.922 27.5312 157.375C23.4271 159.172 18.849 160.662 14.3333 159.75C4.9375 157.86 -0.0416745 147.021 2.10937 138.245C4.64583 127.912 14.1927 121.141 24.0104 118.537C25.8073 118.058 27.625 117.693 29.4635 117.422C29.5469 120.5 29.6354 123.578 29.7187 126.662ZM77.9479 122.907C83.3854 124.709 88.8802 126.776 93.6823 129.948C98.2396 132.964 102.062 137.162 103.693 142.464C105.203 147.396 104.474 152.834 100.719 156.563C97.3385 159.922 92.2292 161.282 87.9531 158.802C83.6198 156.292 81.3333 151.302 79.1719 147.016C76.5052 141.735 73.901 136.271 72.974 130.375C72.5052 127.375 72.5677 124.354 73.1615 121.433C74.7656 121.891 76.3646 122.38 77.9479 122.907Z" fill="#626262"/>
</g>
<mask id="mask1_1_2598" style="mask-type:luminance" maskUnits="userSpaceOnUse" x="158" y="133" width="186" height="25">
<path d="M158.219 133.672H343.125V157.203H158.219V133.672Z" fill="white"/>
</mask>
<g mask="url(#mask1_1_2598)">
<mask id="mask2_1_2598" style="mask-type:luminance" maskUnits="userSpaceOnUse" x="156" y="133" width="188" height="25">
<path d="M343.573 133.672H156.906V157.672H343.573V133.672Z" fill="white"/>
</mask>
<g mask="url(#mask2_1_2598)">
<mask id="mask3_1_2598" style="mask-type:luminance" maskUnits="userSpaceOnUse" x="158" y="134" width="186" height="24">
<path d="M158.24 134.323H343.125V157.203H158.24V134.323Z" fill="white"/>
</mask>
<g mask="url(#mask3_1_2598)">
<path d="M161.583 134.563C160.568 134.563 159.542 134.599 158.516 134.683L158.583 135.526C171.63 134.49 183.937 140.479 195.838 146.276C207.354 151.88 219.26 157.672 231.99 157.287C243.13 156.948 253.354 151.901 263.24 147.026C270.01 143.683 277.021 140.224 284.307 138.276C303.146 133.224 322.682 138.058 342.703 143.906L342.943 143.089C334.109 140.511 323.833 137.641 313.609 136.24C302.495 134.714 292.833 135.11 284.083 137.453C276.719 139.427 269.672 142.906 262.859 146.266C253.057 151.104 242.922 156.11 231.963 156.438C219.437 156.818 207.63 151.068 196.208 145.511C185.13 140.12 173.708 134.563 161.583 134.563Z" fill="#626262"/>
</g>
</g>
</g>
<path d="M359.887 138.629H367.95C370.033 138.629 371.872 139.046 373.471 139.879C375.064 140.712 376.309 141.879 377.2 143.379C378.085 144.879 378.533 146.587 378.533 148.504C378.533 150.421 378.085 152.129 377.2 153.629C376.309 155.118 375.064 156.285 373.471 157.129C371.872 157.962 370.033 158.379 367.95 158.379H359.887V138.629ZM367.825 156.566C369.559 156.566 371.075 156.228 372.367 155.546C373.669 154.853 374.679 153.9 375.387 152.691C376.106 151.483 376.471 150.087 376.471 148.504C376.471 146.921 376.106 145.525 375.387 144.316C374.679 143.098 373.669 142.145 372.367 141.462C371.075 140.77 369.559 140.421 367.825 140.421H361.992V156.566H367.825Z" fill="#DFD9D3"/>
<path d="M402.879 156.566V158.379H388.9V138.629H402.462V140.421H391.004V147.462H401.212V149.233H391.004V156.566H402.879Z" fill="#DFD9D3"/>
<path d="M426.981 158.379L422.46 152.025C421.96 152.082 421.429 152.108 420.877 152.108H415.585V158.379H413.481V138.629H420.877C423.403 138.629 425.382 139.233 426.814 140.441C428.241 141.639 428.96 143.29 428.96 145.4C428.96 146.941 428.57 148.249 427.793 149.316C427.012 150.374 425.898 151.139 424.439 151.608L429.273 158.379H426.981ZM420.835 150.337C422.793 150.337 424.283 149.91 425.314 149.046C426.356 148.171 426.877 146.957 426.877 145.4C426.877 143.806 426.356 142.577 425.314 141.712C424.283 140.853 422.793 140.421 420.835 140.421H415.585V150.337H420.835Z" fill="#DFD9D3"/>
<path d="M453.566 156.566V158.379H439.586V138.629H453.149V140.421H441.691V147.462H451.899V149.233H441.691V156.566H453.566Z" fill="#DFD9D3"/>
<path d="M472.751 158.546C470.793 158.546 469.027 158.118 467.46 157.254C465.887 156.379 464.652 155.181 463.751 153.65C462.861 152.124 462.418 150.41 462.418 148.504C462.418 146.603 462.861 144.889 463.751 143.358C464.652 141.816 465.897 140.618 467.48 139.754C469.064 138.879 470.835 138.441 472.793 138.441C474.251 138.441 475.595 138.691 476.835 139.191C478.085 139.681 479.147 140.395 480.022 141.337L478.689 142.65C477.147 141.098 475.194 140.316 472.835 140.316C471.277 140.316 469.861 140.681 468.585 141.4C467.303 142.108 466.298 143.087 465.564 144.337C464.84 145.577 464.48 146.962 464.48 148.504C464.48 150.046 464.84 151.441 465.564 152.691C466.298 153.931 467.303 154.91 468.585 155.629C469.861 156.337 471.277 156.691 472.835 156.691C475.21 156.691 477.157 155.9 478.689 154.316L480.022 155.65C479.147 156.582 478.085 157.296 476.835 157.796C475.585 158.296 474.22 158.546 472.751 158.546Z" fill="#DFD9D3"/>
<path d="M506.681 138.629V158.379H504.619V149.254H492.265V158.379H490.16V138.629H492.265V147.421H504.619V138.629H506.681Z" fill="#DFD9D3"/>
<path d="M527.452 158.546C525.493 158.546 523.712 158.108 522.118 157.233C520.535 156.358 519.29 155.165 518.389 153.65C517.498 152.124 517.056 150.41 517.056 148.504C517.056 146.603 517.498 144.889 518.389 143.358C519.29 141.832 520.535 140.629 522.118 139.754C523.712 138.879 525.493 138.441 527.452 138.441C529.41 138.441 531.17 138.879 532.743 139.754C534.311 140.618 535.545 141.816 536.452 143.358C537.353 144.889 537.806 146.603 537.806 148.504C537.806 150.41 537.353 152.124 536.452 153.65C535.545 155.181 534.311 156.379 532.743 157.254C531.17 158.118 529.41 158.546 527.452 158.546ZM527.452 156.691C529.019 156.691 530.431 156.337 531.681 155.629C532.941 154.921 533.931 153.941 534.639 152.691C535.358 151.441 535.722 150.046 535.722 148.504C535.722 146.962 535.358 145.566 534.639 144.316C533.931 143.056 532.941 142.077 531.681 141.379C530.431 140.671 529.019 140.316 527.452 140.316C525.894 140.316 524.478 140.671 523.202 141.379C521.936 142.077 520.936 143.056 520.202 144.316C519.478 145.566 519.118 146.962 519.118 148.504C519.118 150.046 519.478 151.441 520.202 152.691C520.936 153.941 521.936 154.921 523.202 155.629C524.478 156.337 525.894 156.691 527.452 156.691Z" fill="#DFD9D3"/>
<path d="M568.072 151.546V158.379H566.01V151.546L558.093 138.629H560.322L567.114 149.712L573.885 138.629H575.968L568.072 151.546Z" fill="#DFD9D3"/>
<path d="M597.998 138.629H600.102V156.566H611.165V158.379H597.998V138.629Z" fill="#DFD9D3"/>
<path d="M620.322 138.629H622.426V158.379H620.322V138.629Z" fill="#DFD9D3"/>
<path d="M638.401 140.421H631.442V138.629H647.421V140.421H640.484V158.379H638.401V140.421Z" fill="#DFD9D3"/>
<path d="M656.447 138.629H658.551V158.379H656.447V138.629Z" fill="#DFD9D3"/>
<path d="M684.588 148.504H686.609V156.046C685.677 156.853 684.578 157.473 683.317 157.9C682.067 158.332 680.739 158.546 679.338 158.546C677.364 158.546 675.588 158.118 674.005 157.254C672.432 156.379 671.192 155.181 670.276 153.65C669.369 152.124 668.921 150.41 668.921 148.504C668.921 146.603 669.369 144.889 670.276 143.358C671.192 141.816 672.432 140.618 674.005 139.754C675.588 138.879 677.38 138.441 679.38 138.441C680.88 138.441 682.26 138.686 683.526 139.171C684.786 139.645 685.848 140.353 686.713 141.296L685.421 142.629C683.848 141.087 681.864 140.316 679.463 140.316C677.864 140.316 676.421 140.671 675.13 141.379C673.838 142.077 672.822 143.056 672.088 144.316C671.348 145.566 670.984 146.962 670.984 148.504C670.984 150.046 671.348 151.441 672.088 152.691C672.822 153.931 673.828 154.91 675.109 155.629C676.385 156.337 677.828 156.691 679.442 156.691C681.468 156.691 683.182 156.186 684.588 155.171V148.504Z" fill="#DFD9D3"/>
<path d="M698.188 138.629H700.292V158.379H698.188V138.629Z" fill="#DFD9D3"/>
<path d="M721.058 158.546C719.1 158.546 717.319 158.108 715.725 157.233C714.141 156.358 712.897 155.165 711.996 153.65C711.105 152.124 710.662 150.41 710.662 148.504C710.662 146.603 711.105 144.889 711.996 143.358C712.897 141.832 714.141 140.629 715.725 139.754C717.319 138.879 719.1 138.441 721.058 138.441C723.016 138.441 724.777 138.879 726.35 139.754C727.918 140.618 729.152 141.816 730.058 143.358C730.959 144.889 731.412 146.603 731.412 148.504C731.412 150.41 730.959 152.124 730.058 153.65C729.152 155.181 727.918 156.379 726.35 157.254C724.777 158.118 723.016 158.546 721.058 158.546ZM721.058 156.691C722.626 156.691 724.037 156.337 725.287 155.629C726.548 154.921 727.537 153.941 728.246 152.691C728.964 151.441 729.329 150.046 729.329 148.504C729.329 146.962 728.964 145.566 728.246 144.316C727.537 143.056 726.548 142.077 725.287 141.379C724.037 140.671 722.626 140.316 721.058 140.316C719.501 140.316 718.084 140.671 716.808 141.379C715.543 142.077 714.543 143.056 713.808 144.316C713.084 145.566 712.725 146.962 712.725 148.504C712.725 150.046 713.084 151.441 713.808 152.691C714.543 153.941 715.543 154.921 716.808 155.629C718.084 156.337 719.501 156.691 721.058 156.691Z" fill="#DFD9D3"/>
<path d="M741.604 155.441C742.031 155.441 742.385 155.587 742.666 155.879C742.958 156.171 743.104 156.535 743.104 156.962C743.104 157.202 743.067 157.452 743 157.712C742.927 157.962 742.833 158.264 742.708 158.608L741.52 162.504H740.166L741.125 158.4C740.817 158.316 740.567 158.15 740.375 157.9C740.192 157.639 740.104 157.327 740.104 156.962C740.104 156.535 740.239 156.171 740.52 155.879C740.812 155.587 741.171 155.441 741.604 155.441Z" fill="#DFD9D3"/>
<path d="M376.408 177.61V197.36H374.346V188.235H361.992V197.36H359.887V177.61H361.992V186.402H374.346V177.61H376.408Z" fill="#DFD9D3"/>
<path d="M402.512 195.547V197.36H388.533V177.61H402.095V179.402H390.637V186.443H400.845V188.214H390.637V195.547H402.512Z" fill="#DFD9D3"/>
<path d="M421.697 197.527C419.739 197.527 417.973 197.099 416.406 196.235C414.833 195.36 413.598 194.162 412.697 192.631C411.807 191.105 411.364 189.391 411.364 187.485C411.364 185.584 411.807 183.87 412.697 182.339C413.598 180.797 414.843 179.599 416.427 178.735C418.01 177.86 419.781 177.422 421.739 177.422C423.197 177.422 424.541 177.672 425.781 178.172C427.031 178.662 428.093 179.375 428.968 180.318L427.635 181.631C426.093 180.079 424.14 179.297 421.781 179.297C420.223 179.297 418.807 179.662 417.531 180.381C416.25 181.089 415.244 182.068 414.51 183.318C413.786 184.558 413.427 185.943 413.427 187.485C413.427 189.027 413.786 190.422 414.51 191.672C415.244 192.912 416.25 193.891 417.531 194.61C418.807 195.318 420.223 195.672 421.781 195.672C424.156 195.672 426.104 194.881 427.635 193.297L428.968 194.631C428.093 195.563 427.031 196.277 425.781 196.777C424.531 197.277 423.166 197.527 421.697 197.527Z" fill="#DFD9D3"/>
<path d="M455.627 177.61V197.36H453.565V188.235H441.211V197.36H439.107V177.61H441.211V186.402H453.565V177.61H455.627Z" fill="#DFD9D3"/>
<path d="M476.398 197.527C474.439 197.527 472.658 197.089 471.064 196.214C469.481 195.339 468.236 194.146 467.335 192.631C466.445 191.105 466.002 189.391 466.002 187.485C466.002 185.584 466.445 183.87 467.335 182.339C468.236 180.813 469.481 179.61 471.064 178.735C472.658 177.86 474.439 177.422 476.398 177.422C478.356 177.422 480.117 177.86 481.689 178.735C483.257 179.599 484.492 180.797 485.398 182.339C486.299 183.87 486.752 185.584 486.752 187.485C486.752 189.391 486.299 191.105 485.398 192.631C484.492 194.162 483.257 195.36 481.689 196.235C480.117 197.099 478.356 197.527 476.398 197.527ZM476.398 195.672C477.966 195.672 479.377 195.318 480.627 194.61C481.887 193.902 482.877 192.922 483.585 191.672C484.304 190.422 484.669 189.027 484.669 187.485C484.669 185.943 484.304 184.547 483.585 183.297C482.877 182.037 481.887 181.058 480.627 180.36C479.377 179.652 477.966 179.297 476.398 179.297C474.841 179.297 473.424 179.652 472.148 180.36C470.882 181.058 469.882 182.037 469.148 183.297C468.424 184.547 468.064 185.943 468.064 187.485C468.064 189.027 468.424 190.422 469.148 191.672C469.882 192.922 470.882 193.902 472.148 194.61C473.424 195.318 474.841 195.672 476.398 195.672Z" fill="#DFD9D3"/>
<path d="M510.227 177.61H518.289C520.372 177.61 522.211 178.027 523.81 178.86C525.404 179.693 526.648 180.86 527.539 182.36C528.425 183.86 528.872 185.568 528.872 187.485C528.872 189.402 528.425 191.11 527.539 192.61C526.648 194.099 525.404 195.266 523.81 196.11C522.211 196.943 520.372 197.36 518.289 197.36H510.227V177.61ZM518.164 195.547C519.898 195.547 521.414 195.209 522.706 194.527C524.008 193.834 525.018 192.881 525.727 191.672C526.445 190.464 526.81 189.068 526.81 187.485C526.81 185.902 526.445 184.506 525.727 183.297C525.018 182.079 524.008 181.125 522.706 180.443C521.414 179.75 519.898 179.402 518.164 179.402H512.331V195.547H518.164Z" fill="#DFD9D3"/>
<path d="M539.239 177.61H541.343V197.36H539.239V177.61Z" fill="#DFD9D3"/>
<path d="M555.567 179.402V187.172H565.776V188.985H555.567V197.36H553.463V177.61H567.026V179.402H555.567Z" fill="#DFD9D3"/>
<path d="M591.008 195.547V197.36H577.029V177.61H590.591V179.402H579.133V186.443H589.341V188.214H579.133V195.547H591.008Z" fill="#DFD9D3"/>
<path d="M615.11 197.36L610.589 191.006C610.089 191.063 609.558 191.089 609.006 191.089H603.714V197.36H601.61V177.61H609.006C611.532 177.61 613.511 178.214 614.944 179.422C616.371 180.62 617.089 182.271 617.089 184.381C617.089 185.922 616.699 187.23 615.923 188.297C615.142 189.355 614.027 190.12 612.569 190.589L617.402 197.36H615.11ZM608.964 189.318C610.923 189.318 612.412 188.891 613.444 188.027C614.485 187.152 615.006 185.938 615.006 184.381C615.006 182.787 614.485 181.558 613.444 180.693C612.412 179.834 610.923 179.402 608.964 179.402H603.714V189.318H608.964Z" fill="#DFD9D3"/>
<path d="M641.695 195.547V197.36H627.716V177.61H641.278V179.402H629.82V186.443H640.028V188.214H629.82V195.547H641.695Z" fill="#DFD9D3"/>
<path d="M668.818 177.61V197.36H667.089L654.401 181.318V197.36H652.297V177.61H654.026L666.756 193.631V177.61H668.818Z" fill="#DFD9D3"/>
<path d="M684.797 179.402H677.838V177.61H693.818V179.402H686.88V197.36H684.797V179.402Z" fill="#DFD9D3"/>
<path d="M716.822 195.547V197.36H702.843V177.61H716.405V179.402H704.947V186.443H715.155V188.214H704.947V195.547H716.822Z" fill="#DFD9D3"/>
<path d="M82.433 2.22916C82.0008 5.96874 81.7039 9.59895 81.5372 13.125C81.381 16.6406 81.308 19.3021 81.308 21.1042C81.308 23.0208 81.3549 24.8646 81.4539 26.625C81.5633 28.3906 81.6726 29.8542 81.7872 31.0208H78.0997C77.4591 24.7292 76.558 19.75 75.3914 16.0833C74.2247 12.4062 72.2247 9.79166 69.3914 8.24999C66.5685 6.69791 62.3341 5.91666 56.683 5.91666H43.4122C39.7872 5.91666 37.0372 6.20832 35.1622 6.79166C33.2976 7.37499 32.0476 8.60416 31.4122 10.4792C30.7716 12.3437 30.4539 15.2448 30.4539 19.1875V98.5C30.4539 102.349 30.7716 105.229 31.4122 107.146C32.0476 109.062 33.2976 110.312 35.1622 110.896C37.0372 111.479 39.7872 111.771 43.4122 111.771H55.0789C61.7976 111.771 66.8914 110.87 70.3497 109.062C73.8185 107.245 76.3289 104.286 77.8705 100.187C79.4122 96.0781 80.558 90.5104 81.308 83.4792H84.9955C84.6726 86.3542 84.5164 90.1875 84.5164 94.9792C84.5164 97.0104 84.5893 99.9167 84.7455 103.708C84.9122 107.49 85.2039 111.406 85.6205 115.458C80.1883 115.25 74.058 115.12 67.2247 115.062C60.4018 115.01 54.3289 114.979 48.9955 114.979C46.6622 114.979 43.6518 114.979 39.9747 114.979C36.2924 114.979 32.3185 115.01 28.058 115.062C23.7924 115.12 19.4747 115.177 15.0997 115.229C10.7247 115.271 6.56325 115.349 2.62054 115.458V112.25C6.24554 112.042 8.98513 111.62 10.8497 110.979C12.7247 110.344 13.9799 109.062 14.6205 107.146C15.256 105.229 15.5789 102.349 15.5789 98.5V19.1875C15.5789 15.2448 15.256 12.3437 14.6205 10.4792C13.9799 8.60416 12.7247 7.32812 10.8497 6.64582C8.98513 5.95312 6.24554 5.55207 2.62054 5.43749V2.22916C6.56325 2.34374 10.7247 2.42707 15.0997 2.47916C19.4747 2.53645 23.7924 2.59374 28.058 2.64582C32.3185 2.68749 36.2924 2.70832 39.9747 2.70832C43.6518 2.70832 46.6622 2.70832 48.9955 2.70832C53.9122 2.70832 59.4851 2.68749 65.7247 2.64582C71.9591 2.59374 77.5268 2.45312 82.433 2.22916ZM54.9122 56.9375C54.9122 56.9375 54.9122 57.474 54.9122 58.5417C54.9122 59.599 54.9122 60.125 54.9122 60.125H25.6622C25.6622 60.125 25.6622 59.599 25.6622 58.5417C25.6622 57.474 25.6622 56.9375 25.6622 56.9375H54.9122ZM59.558 35.8125C59.1258 41.8958 58.9383 46.5364 58.9955 49.7292C59.0476 52.9271 59.0789 55.8542 59.0789 58.5208C59.0789 61.1875 59.1258 64.125 59.2247 67.3333C59.3341 70.5312 59.6049 75.1615 60.0372 81.2292H56.3705C55.9383 77.8281 55.4226 74.5 54.8289 71.25C54.2455 67.9896 52.9643 65.3229 50.9955 63.25C49.0216 61.1667 45.6935 60.125 41.0164 60.125V56.9375C44.5268 56.9375 47.2143 56.2187 49.0789 54.7708C50.9539 53.3281 52.3133 51.4896 53.1622 49.25C54.006 47.0156 54.5893 44.7031 54.9122 42.3125C55.2299 39.9114 55.5476 37.7448 55.8705 35.8125H59.558Z" fill="white"/>
<path d="M132.326 2.22916V5.60416C126.992 5.60416 123.732 6.16666 122.555 7.29166C121.388 8.40624 121.555 10.1823 123.055 12.625L182.867 104.104C184.878 107.203 186.581 109.26 187.971 110.271C189.357 111.271 191.227 111.885 193.576 112.104V115.458C192.185 115.349 190.232 115.219 187.721 115.062C185.221 114.896 182.586 114.812 179.826 114.812C175.56 114.812 171.268 114.896 166.951 115.062C162.628 115.219 159.398 115.349 157.263 115.458V112.104C162.596 112.104 166.003 111.786 167.492 111.146C168.992 110.51 168.997 109.016 167.513 106.667L106.742 13.5833C104.711 10.5 103.034 8.42707 101.701 7.35416C100.367 6.28645 98.4714 5.70312 96.013 5.60416V2.22916C97.3984 2.34374 99.3724 2.47916 101.93 2.64582C104.497 2.80207 107.117 2.87499 109.784 2.87499C114.143 2.87499 118.242 2.80207 122.076 2.64582C125.919 2.47916 129.336 2.34374 132.326 2.22916ZM141.117 57.0833C141.117 57.0833 141.221 57.4323 141.43 58.125C141.648 58.8229 141.893 59.5156 142.159 60.2083C142.419 60.9062 142.555 61.25 142.555 61.25L122.888 90.5208C119.055 96.2708 117.055 100.698 116.888 103.792C116.732 106.875 117.935 109.036 120.492 110.271C123.044 111.495 126.565 112.156 131.055 112.25V115.458C129.555 115.349 127.846 115.271 125.93 115.229C124.013 115.177 122.065 115.12 120.096 115.062C118.122 115.01 116.201 114.979 114.326 114.979C112.461 114.979 110.836 114.979 109.451 114.979C106.784 114.979 104.247 115.01 101.846 115.062C99.4557 115.12 97.4609 115.25 95.8672 115.458V112.25C99.1693 111.724 102.263 110.24 105.138 107.792C108.013 105.333 110.94 101.917 113.93 97.5417L141.117 57.0833ZM190.221 2.22916V5.43749C186.914 5.86978 183.815 7.33332 180.93 9.83332C178.055 12.3333 175.122 15.7708 172.138 20.1458L146.388 58.5208C146.388 58.5208 146.227 57.8333 145.909 56.4583C145.586 55.0729 145.43 54.375 145.43 54.375L163.659 27.1875C167.503 21.4271 169.747 17 170.388 13.9167C171.023 10.8229 170.273 8.66145 168.138 7.43749C166.013 6.21874 162.706 5.55207 158.221 5.43749V2.22916C160.247 2.34374 162.326 2.42707 164.451 2.47916C166.586 2.53645 168.701 2.59374 170.784 2.64582C172.867 2.68749 174.81 2.70832 176.617 2.70832C179.393 2.70832 181.956 2.66145 184.305 2.56249C186.648 2.45312 188.622 2.34374 190.221 2.22916Z" fill="white"/>
<path d="M249.871 0C259.996 0 268.871 2.29167 276.496 6.875C284.121 11.4583 290.037 18.0417 294.246 26.625C298.454 35.2083 300.558 45.6354 300.558 57.8958C300.558 69.8281 298.397 80.2708 294.079 89.2292C289.756 98.1875 283.756 105.177 276.079 110.188C268.412 115.188 259.621 117.688 249.704 117.688C239.579 117.688 230.704 115.396 223.079 110.813C215.454 106.229 209.537 99.625 205.329 91C201.121 82.3646 199.016 71.9688 199.016 59.8125C199.016 47.8698 201.194 37.4167 205.558 28.4583C209.933 19.5 215.933 12.5208 223.558 7.52083C231.183 2.51042 239.954 0 249.871 0ZM249.225 2.875C242.293 2.875 236.266 5.28125 231.141 10.0833C226.027 14.875 222.058 21.4896 219.225 29.9167C216.402 38.3333 214.996 48.0833 214.996 59.1667C214.996 70.474 216.563 80.3125 219.704 88.6875C222.855 97.0521 227.126 103.495 232.516 108.021C237.902 112.552 243.85 114.813 250.35 114.813C257.277 114.813 263.298 112.417 268.412 107.625C273.537 102.823 277.506 96.1823 280.329 87.7083C283.147 79.2396 284.558 69.5104 284.558 58.5208C284.558 47.1198 282.985 37.2656 279.85 28.9583C276.709 20.6406 272.475 14.2187 267.141 9.6875C261.808 5.14583 255.834 2.875 249.225 2.875Z" fill="white"/>
<path d="M314.468 2.22916C316.718 2.34374 319.656 2.45312 323.281 2.56249C326.906 2.66145 330.474 2.70832 333.989 2.70832C339 2.70832 343.802 2.66145 348.385 2.56249C352.968 2.45312 356.218 2.39582 358.135 2.39582C366.771 2.39582 373.937 3.62499 379.635 6.08332C385.343 8.53124 389.604 11.8646 392.427 16.0833C395.26 20.2917 396.677 25.0104 396.677 30.2292C396.677 33.4271 396.036 36.8333 394.76 40.4583C393.479 44.0833 391.265 47.5 388.114 50.7083C384.974 53.9062 380.682 56.5417 375.239 58.625C369.807 60.6979 362.932 61.7292 354.614 61.7292H339.26V58.5208H353.01C360.578 58.5208 366.364 57.3281 370.364 54.9375C374.364 52.5364 377.078 49.3333 378.51 45.3333C379.953 41.3333 380.677 36.8854 380.677 31.9792C380.677 23.5625 378.677 17.0364 374.677 12.3958C370.687 7.76041 363.843 5.43749 354.135 5.43749C349.229 5.43749 346.031 6.34895 344.531 8.16666C343.041 9.97395 342.302 13.6458 342.302 19.1875V98.5C342.302 102.349 342.62 105.229 343.26 107.146C343.896 109.062 345.146 110.344 347.01 110.979C348.885 111.62 351.635 112.042 355.26 112.25V115.458C352.802 115.25 349.729 115.12 346.052 115.062C342.385 115.01 338.682 114.979 334.948 114.979C330.791 114.979 326.906 115.01 323.281 115.062C319.656 115.12 316.718 115.25 314.468 115.458V112.25C318.093 112.042 320.833 111.62 322.698 110.979C324.573 110.344 325.828 109.062 326.468 107.146C327.104 105.229 327.427 102.349 327.427 98.5V19.1875C327.427 15.2448 327.104 12.3437 326.468 10.4792C325.828 8.60416 324.573 7.32812 322.698 6.64582C320.833 5.95312 318.093 5.55207 314.468 5.43749V2.22916ZM339.906 59C345.656 59.224 350.182 59.4687 353.489 59.7292C356.791 59.9948 359.489 60.2396 361.573 60.4583C363.656 60.6667 365.656 60.9323 367.573 61.25C374.708 62.4167 379.849 64.5781 382.989 67.7292C386.14 70.8698 388.458 75.7448 389.948 82.3542L393.948 98.6667C395.015 103.365 396.104 106.75 397.218 108.833C398.343 110.906 400.078 111.885 402.427 111.771C404.245 111.677 405.765 111.094 406.989 110.021C408.208 108.953 409.515 107.516 410.906 105.708L413.302 107.458C411.062 110.766 408.745 113.302 406.343 115.062C403.953 116.812 400.573 117.687 396.198 117.687C392.25 117.687 388.786 116.521 385.802 114.187C382.812 111.844 380.573 107.25 379.073 100.417L375.573 84.4375C374.614 79.8542 373.515 75.8854 372.281 72.5208C371.057 69.1615 369.349 66.5208 367.156 64.6042C364.974 62.6875 361.75 61.7292 357.489 61.7292H340.218L339.906 59Z" fill="white"/>
<path d="M461.765 2.22916C480.848 2.22916 495.025 6.99999 504.306 16.5417C513.582 26.0833 518.223 39.7604 518.223 57.5625C518.223 69.1875 515.952 79.349 511.41 88.0417C506.879 96.724 500.296 103.469 491.66 108.271C483.035 113.062 472.588 115.458 460.327 115.458C458.728 115.458 456.598 115.411 453.931 115.312C451.265 115.203 448.515 115.12 445.681 115.062C442.858 115.01 440.275 114.979 437.931 114.979C434.207 114.979 430.535 115.01 426.91 115.062C423.285 115.12 420.348 115.25 418.098 115.458V112.25C421.723 112.042 424.463 111.62 426.327 110.979C428.202 110.344 429.457 109.062 430.098 107.146C430.733 105.229 431.056 102.349 431.056 98.5V19.1875C431.056 15.2448 430.733 12.3437 430.098 10.4792C429.457 8.60416 428.202 7.32812 426.327 6.64582C424.463 5.95312 421.723 5.55207 418.098 5.43749V2.22916C420.348 2.34374 423.285 2.47916 426.91 2.64582C430.535 2.80207 434.103 2.82291 437.619 2.70832C441.353 2.61457 445.562 2.51041 450.244 2.39582C454.937 2.28645 458.775 2.22916 461.765 2.22916ZM457.765 5.12499C452.858 5.12499 449.66 6.03645 448.16 7.85416C446.671 9.66145 445.931 13.3333 445.931 18.875V98.8333C445.931 104.375 446.702 108.057 448.244 109.875C449.796 111.682 453.025 112.583 457.931 112.583C469.541 112.583 478.546 110.479 484.952 106.271C491.353 102.052 495.832 95.8906 498.39 87.7917C500.942 79.6979 502.223 69.8333 502.223 58.2083C502.223 46.2656 500.806 36.375 497.973 28.5417C495.15 20.7083 490.515 14.8489 484.056 10.9583C477.608 7.07291 468.848 5.12499 457.765 5.12499Z" fill="white"/>
<path d="M573.074 2.22916V5.43749C569.449 5.55207 566.699 5.95312 564.824 6.64582C562.959 7.32812 561.709 8.60416 561.074 10.4792C560.433 12.3437 560.116 15.2448 560.116 19.1875V98.5C560.116 102.349 560.433 105.229 561.074 107.146C561.709 109.062 562.959 110.344 564.824 110.979C566.699 111.62 569.449 112.042 573.074 112.25V115.458C570.616 115.25 567.543 115.12 563.866 115.062C560.199 115.01 556.496 114.979 552.762 114.979C548.605 114.979 544.72 115.01 541.095 115.062C537.47 115.12 534.532 115.25 532.282 115.458V112.25C535.907 112.042 538.647 111.62 540.512 110.979C542.387 110.344 543.642 109.062 544.282 107.146C544.918 105.229 545.241 102.349 545.241 98.5V19.1875C545.241 15.2448 544.918 12.3437 544.282 10.4792C543.642 8.60416 542.387 7.32812 540.512 6.64582C538.647 5.95312 535.907 5.55207 532.282 5.43749V2.22916C534.532 2.34374 537.47 2.45312 541.095 2.56249C544.72 2.66145 548.605 2.70832 552.762 2.70832C556.496 2.70832 560.199 2.66145 563.866 2.56249C567.543 2.45312 570.616 2.34374 573.074 2.22916Z" fill="white"/>
<path d="M631.433 1.4375L670.454 102.021C672.048 106.078 673.86 108.771 675.892 110.104C677.918 111.438 679.788 112.156 681.496 112.25V115.458C679.355 115.25 676.735 115.12 673.642 115.063C670.558 115.01 667.475 114.979 664.392 114.979C660.225 114.979 656.329 115.01 652.704 115.063C649.079 115.12 646.147 115.25 643.913 115.458V112.25C649.355 112.042 652.819 111.115 654.308 109.458C655.793 107.807 655.475 104.266 653.35 98.8333L623.6 19.3542L626.163 17.2708L598.329 89.5417C596.631 93.8229 595.626 97.4271 595.308 100.354C594.985 103.286 595.277 105.604 596.183 107.313C597.084 109.01 598.626 110.229 600.808 110.979C603.001 111.729 605.751 112.156 609.058 112.25V115.458C606.069 115.25 602.954 115.12 599.704 115.063C596.454 115.01 593.439 114.979 590.663 114.979C587.996 114.979 585.725 115.01 583.85 115.063C581.985 115.12 580.256 115.25 578.663 115.458V112.25C580.798 111.724 582.985 110.474 585.225 108.5C587.459 106.531 589.485 103.146 591.308 98.3542L628.892 1.4375C629.308 1.4375 629.73 1.4375 630.163 1.4375C630.59 1.4375 631.017 1.4375 631.433 1.4375ZM650.954 69.3958V72.6042H603.288L604.892 69.3958H650.954Z" fill="white"/>
</svg>
