<svg width="199" height="136" viewBox="0 0 199 136" fill="none" xmlns="http://www.w3.org/2000/svg">
<path d="M195.813 0C195.381 3.73958 195.084 7.36979 194.917 10.8958C194.761 14.4115 194.688 17.0729 194.688 18.875C194.688 20.7917 194.735 22.6354 194.834 24.3958C194.943 26.1615 195.053 27.625 195.167 28.7917H191.48C190.839 22.5 189.938 17.5208 188.772 13.8542C187.605 10.1771 185.605 7.5625 182.772 6.02083C179.949 4.46875 175.714 3.6875 170.063 3.6875H156.792C153.167 3.6875 150.417 3.97917 148.542 4.5625C146.678 5.14583 145.428 6.375 144.792 8.25C144.152 10.1146 143.834 13.0156 143.834 16.9583V96.2708C143.834 100.12 144.152 103 144.792 104.917C145.428 106.833 146.678 108.083 148.542 108.667C150.417 109.25 153.167 109.542 156.792 109.542H168.459C175.178 109.542 180.272 108.641 183.73 106.833C187.199 105.016 189.709 102.057 191.251 97.9583C192.792 93.849 193.938 88.2813 194.688 81.25H198.376C198.053 84.125 197.897 87.9583 197.897 92.75C197.897 94.7813 197.969 97.6875 198.126 101.479C198.292 105.26 198.584 109.177 199.001 113.229C193.568 113.021 187.438 112.891 180.605 112.833C173.782 112.781 167.709 112.75 162.376 112.75C160.042 112.75 157.032 112.75 153.355 112.75C149.673 112.75 145.699 112.781 141.438 112.833C137.173 112.891 132.855 112.948 128.48 113C124.105 113.042 119.943 113.12 116.001 113.229V110.021C119.626 109.813 122.365 109.391 124.23 108.75C126.105 108.115 127.36 106.833 128.001 104.917C128.636 103 128.959 100.12 128.959 96.2708V16.9583C128.959 13.0156 128.636 10.1146 128.001 8.25C127.36 6.375 126.105 5.09896 124.23 4.41667C122.365 3.72396 119.626 3.32292 116.001 3.20833V0C119.943 0.114583 124.105 0.197916 128.48 0.25C132.855 0.307292 137.173 0.364583 141.438 0.416667C145.699 0.458333 149.673 0.479167 153.355 0.479167C157.032 0.479167 160.042 0.479167 162.376 0.479167C167.292 0.479167 172.865 0.458333 179.105 0.416667C185.339 0.364583 190.907 0.223959 195.813 0ZM168.292 54.7083C168.292 54.7083 168.292 55.2448 168.292 56.3125C168.292 57.3698 168.292 57.8958 168.292 57.8958H139.042C139.042 57.8958 139.042 57.3698 139.042 56.3125C139.042 55.2448 139.042 54.7083 139.042 54.7083H168.292ZM172.938 33.5833C172.506 39.6667 172.318 44.3073 172.376 47.5C172.428 50.6979 172.459 53.625 172.459 56.2917C172.459 58.9583 172.506 61.8958 172.605 65.1042C172.714 68.3021 172.985 72.9323 173.417 79H169.751C169.318 75.599 168.803 72.2708 168.209 69.0208C167.626 65.7604 166.344 63.0938 164.376 61.0208C162.402 58.9375 159.074 57.8958 154.397 57.8958V54.7083C157.907 54.7083 160.594 53.9896 162.459 52.5417C164.334 51.099 165.693 49.2604 166.542 47.0208C167.386 44.7865 167.969 42.474 168.292 40.0833C168.61 37.6823 168.928 35.5156 169.251 33.5833H172.938Z" fill="white"/>
<mask id="mask0_1_2597" style="mask-type:luminance" maskUnits="userSpaceOnUse" x="0" y="38" width="119" height="98">
<path d="M0 38.9125H118.943V135.834H0V38.9125Z" fill="white"/>
</mask>
<g mask="url(#mask0_1_2597)">
<mask id="mask1_1_2597" style="mask-type:luminance" maskUnits="userSpaceOnUse" x="-2" y="38" width="121" height="99">
<path d="M118.995 38.9125H-1.00519V136.246H118.995V38.9125Z" fill="white"/>
</mask>
<g mask="url(#mask1_1_2597)">
<mask id="mask2_1_2597" style="mask-type:luminance" maskUnits="userSpaceOnUse" x="0" y="39" width="119" height="97">
<path d="M3.05176e-05 39.225H118.943V135.413H3.05176e-05V39.225Z" fill="white"/>
</mask>
<g mask="url(#mask2_1_2597)">
<path d="M94.4948 42.3604C97.5261 45.0063 99.224 48.9542 100.198 52.7719C101.313 57.1313 101.25 61.5583 101.448 66.0167C101.651 70.6365 102.042 75.5427 104.245 79.7042C106.641 84.2198 111.073 86.751 116.099 87.1365C121.115 87.5271 126.125 86.2719 130.917 84.9229C131.474 84.7667 131.708 85.6365 131.151 85.7927C122.219 88.3031 110.297 90.6052 104.245 81.4646C98.9688 73.4958 101.495 63.3292 99.6719 54.4802C98.8282 50.3917 97.2344 46.0844 94.0886 43.199C91.0105 40.3708 86.4427 39.6313 82.75 41.7042C79.0469 43.7771 76.8125 47.8865 75.8334 51.8917C74.5938 56.9594 75.7188 61.9385 77.4375 66.7563C79.3646 72.1625 82.0105 77.324 83.4063 82.9177C84.6355 87.8344 84.7136 92.9906 83.6667 97.949C81.5782 107.871 74.9896 116.355 65.5677 120.267C56.4271 124.064 45.6771 123.225 37.724 117.142C34.0052 114.298 30.9896 110.511 29.1094 106.22C28.5209 104.866 28.0573 103.48 27.7136 102.079C20.3802 104.11 12.8386 105.444 5.2865 106.09C-1.13538 106.642 -7.90622 106.876 -14.4583 106.006L-14.7239 115.527C-14.901 121.959 -15.0781 128.397 -15.2552 134.829C-15.2708 135.407 -16.1718 135.413 -16.1562 134.829C-15.8854 125.183 -15.6198 115.532 -15.3541 105.881C-20.2239 105.157 -24.9531 103.808 -29.302 101.496C-37.5468 97.1104 -44.7031 88.3917 -44.1041 78.6C-43.5625 69.85 -36.7656 61.4073 -27.5573 61.4385C-22.7187 61.4542 -18.3958 63.3448 -14.1093 65.4125C-13.9843 63.8708 -13.802 62.3292 -13.5468 60.7979C-12.8229 56.5479 -11.4427 52.2042 -8.52601 48.9333C-5.73434 45.8031 -1.75517 44.1208 2.43233 44.4385C6.40629 44.7406 10.3125 46.6417 12.7917 49.7927C15.349 53.0583 15.9584 57.3552 14.823 61.2979C13.7032 65.1885 10.9688 68.7198 7.23962 70.4021C3.35941 72.1521 -1.02601 71.7094 -4.96872 70.4073C-7.85413 69.4594 -10.5885 68.1313 -13.3229 66.8135C-13.5104 69.7719 -13.5416 72.7406 -13.6198 75.6938C-13.8906 85.4802 -14.1614 95.2719 -14.4323 105.058C-10.7083 105.553 -6.93226 105.683 -3.17705 105.626C2.98962 105.527 9.14587 104.954 15.2292 103.918C19.3646 103.215 23.4636 102.293 27.5105 101.168C26.8646 98.0375 26.8177 94.8135 27.3438 91.5896C28.3021 85.7302 30.8855 80.2823 33.5313 75.0271C35.6823 70.7667 37.9115 66.0115 41.9844 63.2354C45.7813 60.6469 50.5209 60.8708 54.3177 63.3396C58.3021 65.9333 60.5782 70.3083 60.5625 75.0427C60.5469 80.1469 58.1407 85.0844 54.6875 88.751C50.9011 92.7719 45.9532 95.4385 40.9063 97.5375C36.8907 99.2094 32.7709 100.631 28.573 101.834C29.0052 103.61 29.6355 105.345 30.474 107.011C34.9323 115.918 44.0261 121.689 54.0052 121.694C64.2969 121.699 74.0261 116.116 79.1771 107.215C81.7657 102.751 83.2292 97.6469 83.4688 92.4958C83.724 87.0531 82.4271 81.8969 80.4792 76.8448C78.4427 71.5583 75.9011 66.3969 74.8125 60.7927C73.9844 56.5323 74.3907 52.2042 76.1302 48.2146C77.6511 44.7302 80.2813 41.4802 83.9532 40.1729C87.5834 38.876 91.6355 39.8604 94.4948 42.3604ZM-2.06767 70.2719C2.32816 71.2094 6.94795 70.4646 10.2605 67.251C13.4167 64.1938 15.1302 59.475 14.2761 55.1156C13.4219 50.7615 9.99483 47.4385 5.86462 46.0427C1.61462 44.6104 -3.05725 45.2667 -6.51038 48.2146C-9.99996 51.1938 -11.651 55.6729 -12.5 60.0635C-12.8698 61.9698 -13.0989 63.8969 -13.25 65.8292C-9.60934 67.6104 -5.97913 69.4333 -2.06767 70.2719ZM-15.0729 95.6938C-14.8906 89.1469 -14.7083 82.5948 -14.5312 76.0427C-14.4427 72.8344 -14.4114 69.6052 -14.1875 66.3969C-15.2031 65.9125 -16.2239 65.4333 -17.2552 64.9802C-21.3593 63.1833 -25.9375 61.6938 -30.4583 62.6C-39.8541 64.4958 -44.8333 75.3344 -42.677 84.1052C-40.1458 94.4438 -30.5989 101.215 -20.7812 103.819C-18.9843 104.298 -17.1614 104.657 -15.3281 104.933C-15.2448 101.855 -15.1562 98.7719 -15.0729 95.6938ZM33.1563 99.449C38.5938 97.6469 44.0886 95.5792 48.8907 92.4021C53.448 89.3917 57.2761 85.1938 58.9011 79.8917C60.4167 74.9594 59.6823 69.5219 55.9271 65.7927C52.5521 62.4333 47.4375 61.074 43.1615 63.5531C38.8282 66.0635 36.5417 71.0531 34.3802 75.3396C31.7136 80.6208 29.1146 86.0844 28.1823 91.9802C27.7136 94.9802 27.7761 98.001 28.3698 100.923C29.974 100.465 31.573 99.975 33.1563 99.449Z" fill="#A6A6A6"/>
</g>
</g>
</g>
</svg>
