<svg width="1778" height="649" viewBox="0 0 1778 649" fill="none" xmlns="http://www.w3.org/2000/svg">
<path d="M363.858 0L495.921 340.458C501.338 354.167 507.468 363.281 514.317 367.792C521.176 372.292 527.494 374.724 533.275 375.083V385.917C526.051 385.198 517.202 384.745 506.733 384.563C496.275 384.385 485.817 384.292 475.358 384.292C461.285 384.292 448.114 384.385 435.838 384.563C423.572 384.745 413.65 385.198 406.067 385.917V375.083C424.468 374.365 436.197 371.208 441.254 365.625C446.306 360.031 445.223 348.031 438.004 329.625L337.338 60.6042L345.983 53.5833L251.817 298.229C246.035 312.661 242.608 324.844 241.525 334.771C240.442 344.688 241.431 352.536 244.504 358.313C247.572 364.094 252.801 368.245 260.192 370.771C267.593 373.286 276.89 374.724 288.088 375.083V385.917C277.973 385.198 267.41 384.745 256.4 384.563C245.4 384.385 235.213 384.292 225.838 384.292C216.806 384.292 209.134 384.385 202.817 384.563C196.509 384.745 190.65 385.198 185.233 385.917V375.083C192.452 373.281 199.848 369.042 207.421 362.375C215.004 355.698 221.864 344.24 228.004 328L355.192 0C356.634 0 358.077 0 359.525 0C360.968 0 362.41 0 363.858 0ZM429.9 230.021V240.854H268.588L274.004 230.021H429.9Z" fill="#A70B0B"/>
<path d="M570.082 2.6875C577.666 3.05208 587.588 3.41146 599.853 3.77083C612.129 4.13542 624.218 4.3125 636.124 4.3125C653.082 4.3125 669.317 4.13542 684.832 3.77083C700.343 3.41146 711.353 3.22917 717.853 3.22917C755.739 3.22917 784.249 11.1771 803.374 27.0625C822.499 42.9375 832.062 63.3229 832.062 88.2083C832.062 100.849 829.442 113.219 824.207 125.313C818.983 137.396 810.322 148.396 798.228 158.313C786.145 168.229 769.999 176.26 749.791 182.396V183.479C778.291 187.094 800.567 193.865 816.624 203.792C832.692 213.708 843.968 225.344 850.457 238.688C856.957 252.036 860.207 266.115 860.207 280.917C860.207 301.49 855.062 319.62 844.77 335.313C834.489 351.01 819.608 363.37 800.124 372.396C780.634 381.411 757.364 385.917 730.312 385.917C722.364 385.917 710.457 385.646 694.582 385.104C678.707 384.563 659.582 384.292 637.207 384.292C624.582 384.292 612.129 384.385 599.853 384.563C587.588 384.745 577.666 385.198 570.082 385.917V375.083C582.358 374.365 591.65 372.927 597.957 370.771C604.275 368.604 608.52 364.271 610.687 357.771C612.853 351.271 613.937 341.531 613.937 328.542V60.0625C613.937 46.7188 612.853 36.8906 610.687 30.5833C608.52 24.2656 604.275 19.9323 597.957 17.5833C591.65 15.2396 582.358 13.8854 570.082 13.5208V2.6875ZM704.312 13.5208C687.713 13.5208 676.884 16.5937 671.832 22.7292C666.791 28.8542 664.27 41.3021 664.27 60.0625V328.542C664.27 341.167 665.353 350.729 667.52 357.229C669.687 363.729 673.65 368.063 679.416 370.229C685.192 372.385 693.671 373.458 704.853 373.458C740.228 373.458 765.942 365.25 781.999 348.833C798.051 332.417 806.082 309.057 806.082 278.75C806.082 250.958 798.588 229.49 783.603 214.333C768.629 199.182 744.004 191.604 709.728 191.604H653.978C653.978 191.604 653.978 190.073 653.978 187C653.978 183.932 653.978 182.396 653.978 182.396H700.541C721.832 182.396 738.249 178.344 749.791 170.229C761.332 162.104 769.27 151.281 773.603 137.75C777.937 124.208 780.103 109.682 780.103 94.1667C780.103 67.474 774.233 47.3646 762.499 33.8333C750.775 20.2917 731.379 13.5208 704.312 13.5208Z" fill="white"/>
<path d="M931.657 2.6875C939.241 3.05208 949.163 3.41146 961.428 3.77083C973.704 4.13542 985.793 4.3125 997.699 4.3125C1014.66 4.3125 1030.89 4.13542 1046.41 3.77083C1061.92 3.41146 1072.93 3.22917 1079.43 3.22917C1108.65 3.22917 1132.91 7.38542 1152.22 15.6875C1171.52 23.9948 1185.95 35.2708 1195.51 49.5208C1205.08 63.7708 1209.87 79.7396 1209.87 97.4167C1209.87 108.25 1207.7 119.802 1203.37 132.063C1199.04 144.328 1191.56 155.875 1180.91 166.708C1170.27 177.531 1155.75 186.458 1137.34 193.5C1118.94 200.531 1095.66 204.042 1067.51 204.042H1015.55V193.229H1062.12C1087.73 193.229 1107.29 189.177 1120.82 181.063C1134.37 172.938 1143.56 162.115 1148.43 148.583C1153.3 135.042 1155.74 119.974 1155.74 103.375C1155.74 74.8646 1148.98 52.7604 1135.45 37.0625C1121.92 21.3698 1098.73 13.5208 1065.89 13.5208C1049.29 13.5208 1038.46 16.5937 1033.41 22.7292C1028.37 28.8542 1025.84 41.3021 1025.84 60.0625V328.542C1025.84 341.531 1026.93 351.271 1029.09 357.771C1031.26 364.271 1035.5 368.604 1041.8 370.771C1048.12 372.927 1057.41 374.365 1069.68 375.083V385.917C1061.39 385.198 1051.01 384.745 1038.55 384.563C1026.11 384.385 1013.57 384.292 1000.95 384.292C986.876 384.292 973.704 384.385 961.428 384.563C949.163 384.745 939.241 385.198 931.657 385.917V375.083C943.933 374.365 953.225 372.927 959.532 370.771C965.85 368.604 970.095 364.271 972.262 357.771C974.428 351.271 975.512 341.531 975.512 328.542V60.0625C975.512 46.7188 974.428 36.8906 972.262 30.5833C970.095 24.2656 965.85 19.9323 959.532 17.5833C953.225 15.2396 943.933 13.8854 931.657 13.5208V2.6875ZM1017.72 194.854C1037.2 195.578 1052.54 196.391 1063.72 197.292C1074.91 198.198 1084.02 199.01 1091.05 199.729C1098.09 200.438 1104.87 201.333 1111.37 202.417C1135.54 206.391 1152.95 213.703 1163.59 224.354C1174.25 234.995 1182.09 251.5 1187.14 273.875L1200.68 329.083C1204.29 344.958 1207.98 356.417 1211.76 363.458C1215.55 370.49 1221.42 373.823 1229.37 373.458C1235.49 373.099 1240.63 371.12 1244.78 367.521C1248.93 363.911 1253.36 359.036 1258.05 352.896L1266.16 358.854C1258.58 370.036 1250.74 378.604 1242.62 384.563C1234.5 390.521 1223.04 393.5 1208.24 393.5C1194.89 393.5 1183.16 389.531 1173.05 381.604C1162.95 373.661 1155.39 358.141 1150.34 335.042L1138.43 280.917C1135.18 265.406 1131.48 251.969 1127.32 240.604C1123.18 229.229 1117.41 220.292 1110.01 213.792C1102.61 207.292 1091.69 204.042 1077.26 204.042H1018.8L1017.72 194.854Z" fill="white"/>
<path d="M1605.01 2.6875V13.5208C1592.74 13.8854 1583.45 15.2396 1577.13 17.5833C1570.83 19.9323 1566.59 24.2656 1564.43 30.5833C1562.26 36.8906 1561.18 46.7188 1561.18 60.0625V328.542C1561.18 341.531 1562.26 351.271 1564.43 357.771C1566.59 364.271 1570.83 368.516 1577.13 370.5C1583.45 372.474 1592.74 373.458 1605.01 373.458H1644.53C1661.49 373.458 1675.29 371.661 1685.93 368.063C1696.58 364.453 1705.06 358.771 1711.36 351.021C1717.68 343.26 1722.47 332.885 1725.72 319.896C1728.97 306.896 1731.49 291.016 1733.3 272.25H1745.74C1744.66 283.432 1744.11 298.224 1744.11 316.625C1744.11 323.49 1744.38 333.328 1744.93 346.146C1745.47 358.953 1746.46 372.208 1747.91 385.917C1729.5 385.198 1708.75 384.745 1685.66 384.563C1662.57 384.385 1642.01 384.292 1623.97 384.292C1616.02 384.292 1605.82 384.292 1593.36 384.292C1580.92 384.292 1567.48 384.385 1553.05 384.563C1538.62 384.745 1524 384.927 1509.2 385.104C1494.41 385.286 1480.33 385.557 1466.99 385.917V375.083C1479.26 374.365 1488.56 372.927 1494.86 370.771C1501.18 368.604 1505.43 364.271 1507.59 357.771C1509.76 351.271 1510.84 341.531 1510.84 328.542V60.0625C1510.84 46.7188 1509.76 36.8906 1507.59 30.5833C1505.43 24.2656 1501.18 19.9323 1494.86 17.5833C1488.56 15.2396 1479.26 13.8854 1466.99 13.5208V2.6875C1474.57 3.05208 1484.49 3.41146 1496.76 3.77083C1509.04 4.13542 1522.21 4.3125 1536.28 4.3125C1548.91 4.3125 1561.44 4.13542 1573.88 3.77083C1586.34 3.41146 1596.72 3.05208 1605.01 2.6875Z" fill="#FDFDFD"/>
<mask id="mask0_4_198" style="mask-type:luminance" maskUnits="userSpaceOnUse" x="436" y="469" width="345" height="53">
<path d="M436.069 469.741H780.069V521.278H436.069V469.741Z" fill="white"/>
</mask>
<g mask="url(#mask0_4_198)">
<mask id="mask1_4_198" style="mask-type:luminance" maskUnits="userSpaceOnUse" x="435" y="469" width="346" height="53">
<path d="M780.631 469.741H435.298V521.741H780.631V469.741Z" fill="white"/>
</mask>
<g mask="url(#mask1_4_198)">
<mask id="mask2_4_198" style="mask-type:luminance" maskUnits="userSpaceOnUse" x="436" y="471" width="345" height="51">
<path d="M436.631 471.074H780.069V521.048H436.631V471.074Z" fill="white"/>
</mask>
<g mask="url(#mask2_4_198)">
<path d="M443.412 471.21C441.194 471.21 438.965 471.298 436.725 471.475L436.871 473.314C465.308 471.059 492.136 484.111 518.09 496.741C543.189 508.96 569.142 521.595 596.892 520.746C621.178 520.012 643.459 509.012 665.006 498.382C679.777 491.095 695.048 483.559 710.933 479.304C752.006 468.298 794.584 478.835 838.23 491.58L838.746 489.804C819.501 484.184 797.1 477.929 774.814 474.866C750.579 471.543 729.527 472.408 710.449 477.517C694.392 481.819 679.037 489.397 664.183 496.725C642.814 507.272 620.715 518.179 596.829 518.903C569.527 519.731 543.793 507.199 518.892 495.08C494.746 483.33 469.845 471.21 443.412 471.21Z" fill="#504A4A"/>
</g>
</g>
</g>
<path d="M222.771 390.439C244.641 373.715 274.214 371.413 299.35 381.845C325.277 392.6 343.386 415.949 349.142 443.241C352.017 456.881 351.803 471.059 348.428 484.585C344.584 499.96 337.313 514.158 332.006 529.033C327.277 542.283 324.189 555.991 327.595 569.928C330.287 580.944 336.433 592.236 346.61 597.95C356.772 603.648 369.339 601.606 377.803 593.83C386.454 585.887 390.84 574.048 393.157 562.803C398.178 538.465 391.225 510.507 405.74 488.58C422.381 463.434 455.173 469.767 479.751 476.678C481.282 477.111 480.631 479.496 479.095 479.064C465.923 475.356 452.141 471.908 438.35 472.97C424.527 474.038 412.324 481.007 405.746 493.419C399.678 504.861 398.6 518.361 398.043 531.075C397.501 543.34 397.667 555.507 394.615 567.497C391.933 578.007 387.256 588.867 378.928 596.137C371.058 603.007 359.913 605.72 349.934 602.158C339.824 598.554 332.595 589.621 328.407 580.033C323.616 569.054 322.506 557.158 324.782 545.439C327.777 530.033 334.767 515.83 340.371 501.278C345.725 487.393 349.288 473.21 348.59 458.231C347.928 444.07 343.902 430.032 336.793 417.756C322.616 393.272 295.865 377.913 267.553 377.923C240.105 377.934 215.09 393.814 202.824 418.309C200.527 422.892 198.793 427.669 197.605 432.559C209.137 435.851 220.486 439.778 231.527 444.372C245.397 450.142 259.016 457.481 269.428 468.533C278.933 478.627 285.538 492.21 285.59 506.247C285.637 519.262 279.365 531.303 268.412 538.428C257.969 545.22 244.928 545.84 234.485 538.72C223.282 531.09 217.152 518.012 211.24 506.278C203.954 491.825 196.845 476.84 194.215 460.731C192.767 451.866 192.902 442.996 194.668 434.392C183.548 431.293 172.272 428.752 160.892 426.814C144.168 423.965 127.225 422.392 110.262 422.127C106.776 422.072 103.281 422.078 99.7871 422.162V419.546C111.161 419.291 122.541 419.896 133.543 420.84C154.314 422.627 175.058 426.283 195.235 431.881C196.178 428.017 197.454 424.215 199.079 420.497C204.251 408.684 212.542 398.267 222.771 390.439ZM197.048 435.059C195.407 443.096 195.23 451.398 196.532 459.653C199.084 475.866 206.24 490.903 213.568 505.423C219.521 517.215 225.808 530.939 237.725 537.845C249.495 544.668 263.553 540.929 272.84 531.689C283.163 521.429 285.183 506.476 281.017 492.903C276.543 478.32 266.022 466.772 253.485 458.486C240.277 449.752 225.162 444.074 210.204 439.116C205.85 437.668 201.459 436.325 197.048 435.059ZM0.630859 510.799C0.40844 510.167 0.199017 509.53 0 508.89H0.630859V510.799Z" fill="#504A4A"/>
<path d="M1449.31 250.054V257.096C1444.85 258.262 1440.62 261.023 1436.62 265.366C1432.63 269.715 1428.76 277.054 1425 287.387L1375.33 426.866L1362.31 451.533L1285.52 277.158C1281.52 268.007 1277.58 262.439 1273.7 260.45C1269.83 258.45 1266.49 257.45 1263.66 257.45V250.054C1271.41 250.752 1279.45 251.278 1287.79 251.637C1296.13 251.986 1304.18 252.158 1311.93 252.158C1321.56 252.158 1330.36 251.924 1338.35 251.45C1346.34 250.981 1353.85 250.512 1360.89 250.054V257.45C1356.19 257.45 1351.79 257.741 1347.68 258.325C1343.57 258.908 1340.75 260.554 1339.23 263.262C1337.69 265.96 1338.34 270.59 1341.16 277.158L1385.54 384.262L1382.37 386.366L1408.43 313.45C1412.9 300.773 1414.79 290.382 1414.08 282.283C1413.37 274.174 1410.79 268.07 1406.33 263.971C1401.87 259.861 1395.77 257.57 1388.02 257.096V250.054C1391.77 250.278 1395.63 250.45 1399.62 250.575C1403.62 250.689 1407.61 250.804 1411.6 250.929C1415.6 251.043 1419.13 251.096 1422.18 251.096C1426.88 251.096 1431.81 250.981 1436.98 250.741C1442.14 250.507 1446.25 250.278 1449.31 250.054ZM1375.33 426.866L1361.95 464.575C1359.61 470.434 1357.19 475.418 1354.73 479.533C1352.25 483.642 1349.5 486.991 1346.45 489.575C1343.16 492.392 1338.93 494.564 1333.77 496.096C1328.6 497.622 1322.61 498.387 1315.81 498.387C1310.17 498.387 1304.36 497.439 1298.37 495.554C1292.38 493.679 1287.39 490.622 1283.39 486.387C1279.4 482.163 1277.41 476.767 1277.41 470.2C1277.41 462.918 1280 457.106 1285.16 452.762C1290.33 448.413 1297.13 446.241 1305.58 446.241C1313.33 446.241 1319.67 448.116 1324.6 451.866C1329.53 455.627 1332 461.158 1332 468.45C1332 473.142 1330.53 477.601 1327.6 481.825C1324.67 486.043 1320.27 489.221 1314.39 491.346C1315.57 491.564 1316.98 491.679 1318.62 491.679C1320.26 491.679 1321.55 491.679 1322.5 491.679C1329.54 491.679 1335.76 489.45 1341.16 484.991C1346.56 480.533 1351.03 473.491 1354.56 463.866L1366.87 427.575L1375.33 426.866Z" fill="#C1C1C1"/>
<path d="M805.36 449.425H824.964C830.058 449.425 834.553 450.446 838.444 452.487C842.345 454.529 845.371 457.378 847.527 461.029C849.694 464.669 850.777 468.831 850.777 473.508C850.777 478.19 849.694 482.357 847.527 486.008C845.371 489.649 842.345 492.487 838.444 494.529C834.553 496.571 830.058 497.591 824.964 497.591H805.36V449.425ZM824.694 493.196C828.912 493.196 832.6 492.357 835.756 490.675C838.923 488.998 841.371 486.675 843.11 483.716C844.86 480.758 845.735 477.357 845.735 473.508C845.735 469.664 844.86 466.258 843.11 463.3C841.371 460.331 838.923 458.008 835.756 456.341C832.6 454.664 828.912 453.821 824.694 453.821H810.444V493.196H824.694Z" fill="#FDFDFD"/>
<path d="M910.149 493.196V497.591H876.087V449.425H909.108V453.821H881.17V470.966H906.087V475.3H881.17V493.196H910.149Z" fill="#FDFDFD"/>
<path d="M968.887 497.591L957.887 482.112C956.648 482.253 955.366 482.321 954.033 482.321H941.096V497.591H936.012V449.425H954.033C960.184 449.425 965.002 450.899 968.491 453.841C971.976 456.774 973.721 460.81 973.721 465.946C973.721 469.696 972.762 472.873 970.846 475.466C968.939 478.065 966.226 479.935 962.7 481.071L974.471 497.591H968.887ZM953.887 477.987C958.663 477.987 962.309 476.935 964.825 474.821C967.351 472.711 968.616 469.753 968.616 465.946C968.616 462.044 967.351 459.05 964.825 456.966C962.309 454.873 958.663 453.821 953.887 453.821H941.096V477.987H953.887Z" fill="#FDFDFD"/>
<path d="M1033.72 493.196V497.591H999.653V449.425H1032.67V453.821H1004.74V470.966H1029.65V475.3H1004.74V493.196H1033.72Z" fill="#FDFDFD"/>
<path d="M1080.49 498.008C1075.71 498.008 1071.41 496.956 1067.58 494.841C1063.76 492.732 1060.76 489.81 1058.58 486.071C1056.4 482.336 1055.31 478.149 1055.31 473.508C1055.31 468.873 1056.4 464.685 1058.58 460.946C1060.76 457.211 1063.77 454.289 1067.62 452.175C1071.46 450.065 1075.78 449.008 1080.56 449.008C1084.14 449.008 1087.44 449.607 1090.47 450.8C1093.5 451.998 1096.07 453.737 1098.18 456.029L1094.93 459.258C1091.17 455.456 1086.42 453.55 1080.7 453.55C1076.88 453.55 1073.41 454.425 1070.29 456.175C1067.17 457.914 1064.73 460.294 1062.97 463.321C1061.21 466.352 1060.33 469.748 1060.33 473.508C1060.33 477.274 1061.21 480.669 1062.97 483.696C1064.73 486.727 1067.17 489.112 1070.29 490.862C1073.41 492.602 1076.88 493.466 1080.7 493.466C1086.48 493.466 1091.22 491.539 1094.93 487.675L1098.18 490.925C1096.07 493.216 1093.48 494.977 1090.43 496.196C1087.38 497.404 1084.06 498.008 1080.49 498.008Z" fill="#FDFDFD"/>
<path d="M1163.19 449.425V497.591H1158.17V475.362H1128.03V497.591H1122.94V449.425H1128.03V470.883H1158.17V449.425H1163.19Z" fill="#FDFDFD"/>
<path d="M1213.82 498.008C1209.05 498.008 1204.73 496.946 1200.86 494.821C1196.98 492.685 1193.95 489.758 1191.78 486.05C1189.59 482.331 1188.5 478.149 1188.5 473.508C1188.5 468.873 1189.59 464.696 1191.78 460.987C1193.95 457.268 1196.98 454.341 1200.86 452.216C1204.73 450.081 1209.05 449.008 1213.82 449.008C1218.59 449.008 1222.89 450.065 1226.71 452.175C1230.55 454.289 1233.56 457.211 1235.75 460.946C1237.96 464.685 1239.07 468.873 1239.07 473.508C1239.07 478.149 1237.96 482.336 1235.75 486.071C1233.56 489.81 1230.55 492.732 1226.71 494.841C1222.89 496.956 1218.59 498.008 1213.82 498.008ZM1213.82 493.466C1217.62 493.466 1221.06 492.607 1224.13 490.883C1227.21 489.164 1229.62 486.779 1231.36 483.737C1233.11 480.685 1233.98 477.274 1233.98 473.508C1233.98 469.748 1233.11 466.341 1231.36 463.3C1229.62 460.248 1227.21 457.857 1224.13 456.133C1221.06 454.414 1217.62 453.55 1213.82 453.55C1210.01 453.55 1206.56 454.414 1203.46 456.133C1200.36 457.857 1197.93 460.248 1196.17 463.3C1194.41 466.341 1193.53 469.748 1193.53 473.508C1193.53 477.274 1194.41 480.685 1196.17 483.737C1197.93 486.779 1200.36 489.164 1203.46 490.883C1206.56 492.607 1210.01 493.466 1213.82 493.466Z" fill="#FDFDFD"/>
<path d="M1424.05 449.425H1429.13V493.196H1456.11V497.591H1424.05V449.425Z" fill="#FDFDFD"/>
<path d="M1478.47 449.425H1483.55V497.591H1478.47V449.425Z" fill="#FDFDFD"/>
<path d="M1522.5 453.821H1505.56V449.425H1544.52V453.821H1527.58V497.591H1522.5V453.821Z" fill="#FDFDFD"/>
<path d="M1566.54 449.425H1571.62V497.591H1566.54V449.425Z" fill="#FDFDFD"/>
<path d="M1635.13 473.508H1640V491.883C1637.77 493.857 1635.11 495.373 1632.03 496.425C1628.95 497.482 1625.72 498.008 1622.34 498.008C1617.52 498.008 1613.18 496.956 1609.32 494.841C1605.47 492.732 1602.44 489.81 1600.23 486.071C1598.04 482.336 1596.94 478.149 1596.94 473.508C1596.94 468.873 1598.04 464.685 1600.23 460.946C1602.44 457.211 1605.47 454.289 1609.32 452.175C1613.18 450.065 1617.54 449.008 1622.4 449.008C1626.07 449.008 1629.43 449.602 1632.5 450.779C1635.59 451.946 1638.18 453.675 1640.3 455.966L1637.13 459.196C1633.32 455.435 1628.48 453.55 1622.61 453.55C1618.7 453.55 1615.18 454.414 1612.05 456.133C1608.91 457.857 1606.44 460.248 1604.65 463.3C1602.86 466.341 1601.96 469.748 1601.96 473.508C1601.96 477.274 1602.86 480.669 1604.65 483.696C1606.44 486.727 1608.89 489.112 1612 490.862C1615.13 492.602 1618.63 493.466 1622.53 493.466C1627.48 493.466 1631.68 492.227 1635.13 489.737V473.508Z" fill="#FDFDFD"/>
<path d="M1668.29 449.425H1673.38V497.591H1668.29V449.425Z" fill="#FDFDFD"/>
<path d="M1724.01 498.008C1719.25 498.008 1714.93 496.946 1711.05 494.821C1707.18 492.685 1704.15 489.758 1701.97 486.05C1699.79 482.331 1698.7 478.149 1698.7 473.508C1698.7 468.873 1699.79 464.696 1701.97 460.987C1704.15 457.268 1707.18 454.341 1711.05 452.216C1714.93 450.081 1719.25 449.008 1724.01 449.008C1728.79 449.008 1733.09 450.065 1736.91 452.175C1740.74 454.289 1743.75 457.211 1745.95 460.946C1748.16 464.685 1749.26 468.873 1749.26 473.508C1749.26 478.149 1748.16 482.336 1745.95 486.071C1743.75 489.81 1740.74 492.732 1736.91 494.841C1733.09 496.956 1728.79 498.008 1724.01 498.008ZM1724.01 493.466C1727.81 493.466 1731.25 492.607 1734.32 490.883C1737.41 489.164 1739.81 486.779 1741.55 483.737C1743.3 480.685 1744.18 477.274 1744.18 473.508C1744.18 469.748 1743.3 466.341 1741.55 463.3C1739.81 460.248 1737.41 457.857 1734.32 456.133C1731.25 454.414 1727.81 453.55 1724.01 453.55C1720.2 453.55 1716.75 454.414 1713.66 456.133C1710.56 457.857 1708.13 460.248 1706.37 463.3C1704.6 466.341 1703.72 469.748 1703.72 473.508C1703.72 477.274 1704.6 480.685 1706.37 483.737C1708.13 486.779 1710.56 489.164 1713.66 490.883C1716.75 492.607 1720.2 493.466 1724.01 493.466Z" fill="#FDFDFD"/>
<path d="M1774.09 490.425C1775.14 490.425 1776.01 490.789 1776.7 491.508C1777.39 492.216 1777.74 493.102 1777.74 494.154C1777.74 494.696 1777.65 495.294 1777.49 495.946C1777.33 496.586 1777.1 497.315 1776.78 498.133L1773.9 507.633H1770.59L1772.92 497.654C1772.19 497.435 1771.59 497.018 1771.13 496.404C1770.67 495.779 1770.45 495.029 1770.45 494.154C1770.45 493.102 1770.78 492.216 1771.47 491.508C1772.16 490.789 1773.03 490.425 1774.09 490.425Z" fill="#FDFDFD"/>
<path d="M845.61 545.425V593.591H840.589V571.362H810.444V593.591H805.36V545.425H810.444V566.883H840.589V545.425H845.61Z" fill="#FDFDFD"/>
<path d="M909.255 589.196V593.591H875.192V545.425H908.213V549.821H880.276V566.966H905.192V571.3H880.276V589.196H909.255Z" fill="#FDFDFD"/>
<path d="M956.035 594.008C951.253 594.008 946.951 592.956 943.118 590.841C939.295 588.732 936.295 585.81 934.118 582.071C931.936 578.336 930.847 574.149 930.847 569.508C930.847 564.873 931.936 560.685 934.118 556.946C936.295 553.211 939.311 550.289 943.16 548.175C947.003 546.065 951.316 545.008 956.097 545.008C959.68 545.008 962.982 545.607 966.014 546.8C969.04 547.998 971.607 549.737 973.722 552.029L970.472 555.258C966.706 551.456 961.962 549.55 956.243 549.55C952.42 549.55 948.951 550.425 945.826 552.175C942.712 553.914 940.274 556.294 938.514 559.321C936.748 562.352 935.868 565.748 935.868 569.508C935.868 573.274 936.748 576.669 938.514 579.696C940.274 582.727 942.712 585.112 945.826 586.862C948.951 588.602 952.42 589.466 956.243 589.466C962.019 589.466 966.764 587.539 970.472 583.675L973.722 586.925C971.607 589.216 969.024 590.977 965.972 592.196C962.915 593.404 959.602 594.008 956.035 594.008Z" fill="#FDFDFD"/>
<path d="M1038.73 545.425V593.591H1033.71V571.362H1003.57V593.591H998.483V545.425H1003.57V566.883H1033.71V545.425H1038.73Z" fill="#FDFDFD"/>
<path d="M1089.36 594.008C1084.59 594.008 1080.27 592.946 1076.4 590.821C1072.52 588.685 1069.49 585.758 1067.32 582.05C1065.13 578.331 1064.04 574.149 1064.04 569.508C1064.04 564.873 1065.13 560.696 1067.32 556.987C1069.49 553.268 1072.52 550.341 1076.4 548.216C1080.27 546.081 1084.59 545.008 1089.36 545.008C1094.13 545.008 1098.43 546.065 1102.25 548.175C1106.09 550.289 1109.1 553.211 1111.29 556.946C1113.5 560.685 1114.61 564.873 1114.61 569.508C1114.61 574.149 1113.5 578.336 1111.29 582.071C1109.1 585.81 1106.09 588.732 1102.25 590.841C1098.43 592.956 1094.13 594.008 1089.36 594.008ZM1089.36 589.466C1093.16 589.466 1096.6 588.607 1099.67 586.883C1102.75 585.164 1105.16 582.779 1106.9 579.737C1108.65 576.685 1109.52 573.274 1109.52 569.508C1109.52 565.748 1108.65 562.341 1106.9 559.3C1105.16 556.248 1102.75 553.857 1099.67 552.133C1096.6 550.414 1093.16 549.55 1089.36 549.55C1085.55 549.55 1082.1 550.414 1079 552.133C1075.9 553.857 1073.47 556.248 1071.71 559.3C1069.95 562.341 1069.07 565.748 1069.07 569.508C1069.07 573.274 1069.95 576.685 1071.71 579.737C1073.47 582.779 1075.9 585.164 1079 586.883C1082.1 588.607 1085.55 589.466 1089.36 589.466Z" fill="#FDFDFD"/>
<path d="M1171.86 545.425H1191.47C1196.56 545.425 1201.05 546.446 1204.94 548.487C1208.85 550.529 1211.87 553.378 1214.03 557.029C1216.19 560.669 1217.28 564.831 1217.28 569.508C1217.28 574.19 1216.19 578.357 1214.03 582.008C1211.87 585.649 1208.85 588.487 1204.94 590.529C1201.05 592.571 1196.56 593.591 1191.47 593.591H1171.86V545.425ZM1191.19 589.196C1195.41 589.196 1199.1 588.357 1202.26 586.675C1205.42 584.998 1207.87 582.675 1209.61 579.716C1211.36 576.758 1212.24 573.357 1212.24 569.508C1212.24 565.664 1211.36 562.258 1209.61 559.3C1207.87 556.331 1205.42 554.008 1202.26 552.341C1199.1 550.664 1195.41 549.821 1191.19 549.821H1176.94V589.196H1191.19Z" fill="#FDFDFD"/>
<path d="M1242.59 545.425H1247.67V593.591H1242.59V545.425Z" fill="#FDFDFD"/>
<path d="M1282.35 549.821V568.758H1307.27V573.154H1282.35V593.591H1277.27V545.425H1310.29V549.821H1282.35Z" fill="#FDFDFD"/>
<path d="M1368.78 589.196V593.591H1334.71V545.425H1367.73V549.821H1339.8V566.966H1364.71V571.3H1339.8V589.196H1368.78Z" fill="#FDFDFD"/>
<path d="M1427.51 593.591L1416.51 578.112C1415.27 578.253 1413.99 578.321 1412.66 578.321H1399.72V593.591H1394.64V545.425H1412.66C1418.81 545.425 1423.63 546.899 1427.12 549.841C1430.6 552.774 1432.35 556.81 1432.35 561.946C1432.35 565.696 1431.39 568.873 1429.47 571.466C1427.57 574.065 1424.85 575.935 1421.33 577.071L1433.1 593.591H1427.51ZM1412.51 573.987C1417.29 573.987 1420.94 572.935 1423.45 570.821C1425.98 568.711 1427.24 565.753 1427.24 561.946C1427.24 558.044 1425.98 555.05 1423.45 552.966C1420.94 550.873 1417.29 549.821 1412.51 549.821H1399.72V573.987H1412.51Z" fill="#FDFDFD"/>
<path d="M1492.34 589.196V593.591H1458.28V545.425H1491.3V549.821H1463.36V566.966H1488.28V571.3H1463.36V589.196H1492.34Z" fill="#FDFDFD"/>
<path d="M1558.46 545.425V593.591H1554.25L1523.29 554.508V593.591H1518.21V545.425H1522.39L1553.43 584.508V545.425H1558.46Z" fill="#FDFDFD"/>
<path d="M1597.39 549.821H1580.45V545.425H1619.41V549.821H1602.47V593.591H1597.39V549.821Z" fill="#FDFDFD"/>
<path d="M1675.49 589.196V593.591H1641.43V545.425H1674.45V549.821H1646.51V566.966H1671.43V571.3H1646.51V589.196H1675.49Z" fill="#FDFDFD"/>
</svg>
