<svg width="349" height="386" viewBox="0 0 349 386" fill="none" xmlns="http://www.w3.org/2000/svg">
<path d="M178.625 0L310.688 340.458C316.104 354.167 322.235 363.281 329.084 367.792C335.943 372.292 342.261 374.724 348.042 375.083V385.917C340.818 385.198 331.969 384.745 321.5 384.563C311.042 384.385 300.584 384.292 290.125 384.292C276.052 384.292 262.88 384.385 250.604 384.563C238.339 384.745 228.417 385.198 220.834 385.917V375.083C239.235 374.365 250.964 371.208 256.021 365.625C261.073 360.031 259.99 348.031 252.771 329.625L152.104 60.6042L160.75 53.5833L66.584 298.229C60.802 312.661 57.375 324.844 56.292 334.771C55.209 344.688 56.198 352.536 59.271 358.313C62.339 364.094 67.568 368.245 74.959 370.771C82.36 373.286 91.656 374.724 102.854 375.083V385.917C92.74 385.198 82.177 384.745 71.167 384.563C60.167 384.385 49.979 384.292 40.604 384.292C31.573 384.292 23.901 384.385 17.584 384.563C11.276 384.745 5.417 385.198 0 385.917V375.083C7.219 373.281 14.615 369.042 22.188 362.375C29.771 355.698 36.63 344.24 42.771 328L169.959 0C171.401 0 172.844 0 174.292 0C175.735 0 177.177 0 178.625 0ZM244.667 230.021V240.854H83.354L88.771 230.021H244.667Z" fill="#A70B0B"/>
</svg>
